<svg xmlns="http://www.w3.org/2000/svg" width="63.319" height="75" viewBox="0 0 63.319 75"><g style="isolation:isolate"><path d="M-287.5,449.467c5.532-1.64,6.965-6.557,6.965-11.681V395.574c0-3.074-.615-8.811-4.712-8.811l12.7-9.018v60.04c0,6.969,1.435,8.2,7.172,11.681Zm48.564-75c3.894,0,9.426,1.64,9.426,6.354,0,3.894-2.869,5.327-6.147,5.327-6.762,0-5.942-5.739-14.14-5.739-4.917,0-14.548,5.124-19.057,9.428C-260.657,379.591-247.542,374.467-238.937,374.467Zm-7.172,75c5.532-1.845,6.557-6.352,6.557-11.681V409.917c0-2.867-.41-8.809-4.509-8.809l12.706-9.018v45.7c0,5.124,1.638,10.041,7.172,11.681Z" transform="translate(287.501 -374.467)" fill="#bfac9b"/></g></svg>